# xmcd CD database file
#
# Track frame offsets:
#	150
#	16160
#	35230
#	49612
#	65237
#	84902
#	102355
#	121927
#	138452
#	154815
#
# Disc length: 2278 seconds
#
# Revision: 3
# Processed by: cddbd v1.5.2PL0 Copyright (c) Steve Scherf et al.
# Submitted via: CDex 1.50
#
DISCID=8308e40a
DTITLE=Kenny Rogers - The Very Best of Kenny Rogers
DYEAR=1990
DGENRE=Country
TTITLE0=The Gambler
TTITLE1=She Believes in Me
TTITLE2=Daytime Friends
TTITLE3=I Don't Need You
TTITLE4=Throught the Years
TTITLE5=Lady
TTITLE6=Coward of the County
TTITLE7=You Decorated My Life
TTITLE8=Love Will Turn You Around
TTITLE9=Lucille
EXTD=YEAR: 1990
EXTT0=
EXTT1=
EXTT2=
EXTT3=
EXTT4=
EXTT5=
EXTT6=
EXTT7=
EXTT8=
EXTT9=
PLAYORDER=
